# xmcd
#
# Track frame offsets: 
#        150
#        16765
#        33242
#        44010
#        64775
#        85047
#        98347
#        112037
#        130612
#        157677
#
# Disc length: 2289 seconds
#
# Revision: 3
# Processed by: cddbd v1.5.2PL0 Copyright (c) Steve Scherf et al.
# Submitted via: ExactAudioCopy v0.99pb5
#
DISCID=6908ef0a
DTITLE=Various Artist - Various Artists
DYEAR=1990
DGENRE=Blues
TTITLE0=Dweezil and Moon Unit Zappa -- (In Love) With You Gumby
TTITLE1=Eddie Wade -- Concrete and Clay
TTITLE2=Brave Combo --  Zydeco Gumby Ya Ya
TTITLE3=Donna McElroy -- Bend Me, Shape Me
TTITLE4=Sly and Robbie -- Gumby, We Love You
TTITLE5=Jonathan Richman -- I Like Gumby
TTITLE6=Brave Combo -- Pokey's Polka
TTITLE7=Rick Schulman -- The Ballad of Gumby
TTITLE8=Flo and Eddie -- We All Are Gumby
TTITLE9=Frank Sinatra, Jr. -- The Gumby Heart Song (Original TV Theme)
EXTD=
EXTT0=
EXTT1=
EXTT2=
EXTT3=
EXTT4=
EXTT5=
EXTT6=
EXTT7=
EXTT8=
EXTT9=
PLAYORDER=
